<?xml version="1.0" encoding="UTF-8" standalone="no"?>
<svg
   xmlns:dc="http://purl.org/dc/elements/1.1/"
   xmlns:cc="http://creativecommons.org/ns#"
   xmlns:rdf="http://www.w3.org/1999/02/22-rdf-syntax-ns#"
   xmlns:svg="http://www.w3.org/2000/svg"
   xmlns="http://www.w3.org/2000/svg"
   xmlns:sodipodi="http://sodipodi.sourceforge.net/DTD/sodipodi-0.dtd"
   xmlns:inkscape="http://www.inkscape.org/namespaces/inkscape"
   viewBox="0 0 183.32001 48.266666"
   height="48.266666"
   width="183.32001"
   xml:space="preserve"
   id="svg2"
   version="1.1"
   sodipodi:docname="UAMS_CMYK.svg"
   inkscape:version="0.92.2 (5c3e80d, 2017-08-06)"><sodipodi:namedview
     pagecolor="#ffffff"
     bordercolor="#666666"
     borderopacity="1"
     objecttolerance="10"
     gridtolerance="10"
     guidetolerance="10"
     inkscape:pageopacity="0"
     inkscape:pageshadow="2"
     inkscape:window-width="716"
     inkscape:window-height="480"
     id="namedview14"
     showgrid="false"
     inkscape:zoom="2.1909046"
     inkscape:cx="151.73671"
     inkscape:cy="18.899915"
     inkscape:window-x="2432"
     inkscape:window-y="242"
     inkscape:window-maximized="0"
     inkscape:current-layer="g12"><inkscape:grid
       type="xygrid"
       id="grid4510" /></sodipodi:namedview><metadata
     id="metadata8"><rdf:RDF><cc:Work
         rdf:about=""><dc:format>image/svg+xml</dc:format><dc:type
           rdf:resource="http://purl.org/dc/dcmitype/StillImage" /></cc:Work></rdf:RDF></metadata><defs
     id="defs6" /><g
     transform="matrix(1.3333333,0,0,-1.3333333,0,48.266667)"
     id="g10"><g
       transform="scale(0.1)"
       id="g12"><path
         id="path14"
         style="fill:#ffffff;fill-opacity:1;fill-rule:nonzero;stroke:none"
         d="m 299.629,141.379 c 0,-37.66 1.012,-72.7384 -26.699,-103.0782 C 249.41,12.6484 212.691,1.05078 178.172,0.03125 L 144.379,0 C 109.859,1.05078 73.2305,12.0313 49.6992,37.6719 21.9805,68 23.0391,103.051 23.0391,140.711 v 139.66 c 0,23.559 3.6601,61.75 -23.0391,71.68 v 1.57 h 99.4219 v -1.57 C 73.2305,342.121 76.3516,303.93 76.3516,280.371 v -139.66 c 0,-69.5899 29.3084,-101.9922 83.1994,-101.9922 29.277,0 59.078,12.0312 76.347,36.6328 11.532,15.6797 11,28.7504 11,47.5894 v 157.43 c 0,23.559 3.141,61.75 -23.019,71.68 v 1.57 h 99.383 l 0.547,-1.57 C 297.121,342.121 300.25,303.93 300.25,279.852 l -0.621,-138.473 v 0" /><path
         id="path16"
         style="fill:#ffffff;fill-opacity:1;fill-rule:nonzero;stroke:none"
         d="M 456.09,309.141 390.75,138.648 363.539,64.8594 c -11,-29.2813 -14.641,-44.4492 10.441,-53.8789 V 9.41016 H 277.762 V 10.9805 C 308.078,26.1484 317,55.4102 328.488,85.3008 L 415.84,303.41 c 7.34,18.82 17.262,40.77 -7.86,48.641 v 1.57 h 82.668 L 599.422,85.3008 C 611.449,55.4102 620.91,26.1484 650.68,10.9805 V 9.41016 H 543.449 v 1.57034 c 25.653,11.5312 21.442,17.2578 7.34,53.8789 L 522.52,138.648 456.09,309.141 v 0" /><path
         id="path18"
         style="fill:#ffffff;fill-opacity:1;fill-rule:nonzero;stroke:none"
         d="m 953.57,320.672 c 4.192,10.969 7.879,21.449 7.879,32.418 v 0.531 h 90.481 v -1.57 c -12.58,-3.68 -16.23,-18.84 -16.23,-30.86 l 34.5,-256.8629 c 3.14,-24.5976 5.76,-38.707 26.66,-53.3476 V 9.41016 H 995.949 v 1.57034 c 18.321,5.7578 21.431,21.4492 21.431,39.2304 L 987.57,302.359 870.422,2.62891 C 844.23,22.5117 836.898,36.6211 824.352,65.9102 L 724.969,301.832 695.16,76.9102 C 690.98,44.9688 687.289,21.9805 711.898,10.9805 V 9.41016 h -85.289 v 1.57034 c 21.981,19.3476 25.129,44.9883 29.313,73.2304 L 685.738,303.41 c 2.082,14.641 7.821,35.52 -16.218,48.641 v 1.57 h 91.55 v -0.531 c 0,-8.352 4.211,-16.25 7.321,-23.551 L 866.75,98.8594 953.57,320.672 v 0" /><path
         id="path20"
         style="fill:#ffffff;fill-opacity:1;fill-rule:nonzero;stroke:none"
         d="m 1304.52,291.34 c -20.41,20.93 -52.82,33 -82.15,33 -29.79,0 -67.46,-11.539 -67.46,-47.641 0,-71.648 179.94,-70.609 179.94,-167.359 0,-55.9884 -58.55,-108.28922 -140.19,-108.28922 -31.9,0 -63.83,4.67969 -93.6,15.68752 l -15.2,65.3828 c 30.9,-26.7109 73.77,-43.4023 114.58,-43.4023 29.8,0 74.81,17.7617 74.81,54.4023 0,81.5899 -180,66.9569 -180,177.8589 0,65.86 67.51,91.02 131.32,91.02 26.16,0 52.85,-3.668 77.95,-11.531 v -59.129 0" /><path
         id="path22"
         style="fill:#ffffff;fill-opacity:1;fill-rule:nonzero;stroke:none"
         d="m 456.93,70.0313 c 24.218,0 43.781,19.6406 43.781,43.8207 0,24.179 -19.563,43.777 -43.781,43.777 -24.141,0 -43.821,-19.598 -43.821,-43.777 0,-24.1801 19.68,-43.8207 43.821,-43.8207 v 0" /><path
         id="path24"
         style="fill:#ffffff;fill-opacity:1;fill-rule:nonzero;stroke:none"
         d="m 1350.01,27.8906 h -5.4 V 35 h 5.4 c 2.7,0 4.41,-1.2773 4.41,-3.5508 0,-2.1367 -1.57,-3.5586 -4.41,-3.5586 z m 10.81,3.9844 c 0,5.8281 -4.41,8.5313 -10.38,8.5313 h -12.09 V 14.668 h 6.26 v 8.1054 h 3.98 l 5.55,-8.1054 h 7.53 l -6.54,9.2461 c 3.42,1.1367 5.69,3.8398 5.69,7.9609" /><path
         id="path26"
         style="fill:#ffffff;fill-opacity:1;fill-rule:nonzero;stroke:none"
         d="m 1370.49,27.1797 v -0.1445 c 0,-12.086 -9.53,-22.17973 -21.9,-22.17973 -12.52,0 -21.9,9.95703 -21.9,22.04293 v 0.1368 c 0,12.0937 9.53,22.1875 21.9,22.1875 12.51,0 21.9,-9.9571 21.9,-22.043 z m -21.9,26.1445 c -14.52,0 -26.29,-11.7695 -26.29,-26.2851 0,-14.5157 11.77,-26.285194 26.29,-26.285194 14.51,0 26.28,11.769494 26.28,26.285194 0,14.5156 -11.77,26.2851 -26.28,26.2851" /></g></g></svg>